<svg width="36" height="36" viewBox="0 0 36 36" fill="none" xmlns="http://www.w3.org/2000/svg">
<path d="M17.9963 0C8.06236 0 0 7.19854 0 16.1967C0.0269027 18.3601 0.509917 20.4935 1.41749 22.4575C2.32506 24.4215 3.63677 26.1719 5.26693 27.5944L4.79903 34.9849C4.79066 35.1592 4.83059 35.3325 4.9144 35.4855C4.99822 35.6386 5.12268 35.7656 5.27405 35.8524C5.42542 35.9393 5.59784 35.9827 5.77229 35.9778C5.94674 35.9729 6.11646 35.9199 6.26273 35.8247L12.5615 31.6256C14.3287 32.1324 16.1579 32.3908 17.9963 32.3934C27.9303 32.3934 35.9927 25.1949 35.9927 16.1967C35.9927 7.19854 27.9303 0 17.9963 0Z" fill="white"/>
</svg>
